<?xml version="1.0" encoding="UTF-8"?>
<svg version="1.1" xmlns="http://www.w3.org/2000/svg" width="740" height="225">
<path d="M0 0 C244.2 0 488.4 0 740 0 C740 74.25 740 148.5 740 225 C495.8 225 251.6 225 0 225 C0 150.75 0 76.5 0 0 Z " fill="#FEFEFE" transform="translate(0,0)"/>
<path d="M0 0 C54.93522267 0 54.93522267 0 67.375 11.75 C77.80215332 23.1329757 79.78145842 34.79043828 79.4375 49.7109375 C78.85016378 59.98565052 74.38214095 68.77084316 67.18359375 76.10546875 C48.11861622 92.64663888 24.25671138 88 0 88 C0 58.96 0 29.92 0 0 Z " fill="#343434" transform="translate(214,62)"/>
<path d="M0 0 C25.14755522 0.05231921 45.40556419 8.29265318 63.625 26 C81.36483168 43.96427724 86.62420074 66.65781566 86.69970703 91.07202148 C86.58837557 101.10498779 85.42386492 109.08350039 81.3125 118.25 C80.85488281 119.32894531 80.39726562 120.40789062 79.92578125 121.51953125 C76.67273947 128.60492362 72.42883329 134.40409815 67.3125 140.25 C66.57644531 141.10722656 65.84039062 141.96445313 65.08203125 142.84765625 C61.10061312 147.3909957 56.98470313 151.46841924 52.41796875 155.41381836 C49.05910467 158.34308747 45.81069009 161.38662233 42.5625 164.4375 C41.87655762 165.07953369 41.19061523 165.72156738 40.48388672 166.38305664 C35.51734052 171.05470334 30.6646399 175.82598376 25.94238281 180.74487305 C24.7682756 181.94927306 23.54475121 183.10515761 22.3125 184.25 C21.6525 184.25 20.9925 184.25 20.3125 184.25 C20.14879808 167.04723827 20.02545142 149.84472046 19.9498148 132.64135742 C19.9137579 124.65305505 19.86462186 116.66523733 19.78442383 108.67724609 C19.71453607 101.71285769 19.66946493 94.74882034 19.65388054 87.784091 C19.64477384 84.09791781 19.62345535 80.41274873 19.5723896 76.72689819 C19.5157699 72.60654645 19.51457813 68.48792723 19.51782227 64.3671875 C19.49265533 63.15230148 19.4674884 61.93741547 19.44155884 60.68571472 C19.49156754 54.81271417 19.80002925 51.10931507 23.72467041 46.57002258 C24.89454341 45.4358246 26.08764306 44.32458521 27.3125 43.25 C28.03848389 42.51160889 28.76446777 41.77321777 29.51245117 41.01245117 C30.12064697 40.44502197 30.72884277 39.87759277 31.35546875 39.29296875 C32.03673828 38.65552734 32.71800781 38.01808594 33.41992188 37.36132812 C34.44956055 36.4090332 34.44956055 36.4090332 35.5 35.4375 C36.19802734 34.78330078 36.89605469 34.12910156 37.61523438 33.45507812 C40.76789784 30.5183916 43.85337884 27.84434087 47.3125 25.25 C47.3125 65.18 47.3125 105.11 47.3125 146.25 C57.56049004 140.10120598 63.42549801 131.37811226 69.3125 121.25 C69.83199219 120.36570312 70.35148437 119.48140625 70.88671875 118.5703125 C79.21315904 102.51753573 79.64030815 80.17706527 74.640625 63.14453125 C71.37659601 53.07374642 66.17411344 44.29520177 59.3125 36.25 C58.37857422 35.02796875 58.37857422 35.02796875 57.42578125 33.78125 C45.882947 19.95545223 27.9442107 11.69907984 10.3125 9.25 C8.36842048 9.17348087 6.42211922 9.14188377 4.4765625 9.15234375 C2.88134766 9.15717773 2.88134766 9.15717773 1.25390625 9.16210938 C-0.38771484 9.17467773 -0.38771484 9.17467773 -2.0625 9.1875 C-3.18011719 9.19201172 -4.29773438 9.19652344 -5.44921875 9.20117188 C-8.19536804 9.21290756 -10.94140586 9.22932637 -13.6875 9.25 C-13.78515625 3.09765625 -13.78515625 3.09765625 -13.6875 1.25 C-11.05905306 -1.37844694 -3.52524628 0.00742304 0 0 Z " fill="#1874BD" transform="translate(106.6875,28.75)"/>
<path d="M0 0 C0.16370192 17.20276173 0.28704858 34.40527954 0.3626852 51.60864258 C0.3987421 59.59694495 0.44787814 67.58476267 0.52807617 75.57275391 C0.59796393 82.53714231 0.64303507 89.50117966 0.65861946 96.465909 C0.66772616 100.15208219 0.68904465 103.83725127 0.7401104 107.52310181 C0.7967301 111.64345355 0.79792187 115.76207277 0.79467773 119.8828125 C0.83242813 121.70514153 0.83242813 121.70514153 0.87094116 123.56428528 C0.82104249 129.42436316 0.51968572 133.13195109 -3.39871216 137.65979004 C-4.57549894 138.79815302 -5.77381925 139.91502158 -7 141 C-7.79704346 141.84498047 -8.59408691 142.68996094 -9.4152832 143.56054688 C-11.70923426 145.87888772 -14.00725915 148.19288039 -16.3125 150.5 C-17.52776367 151.73363281 -17.52776367 151.73363281 -18.76757812 152.9921875 C-19.54166016 153.76820313 -20.31574219 154.54421875 -21.11328125 155.34375 C-22.16189331 156.39852539 -22.16189331 156.39852539 -23.23168945 157.47460938 C-25 159 -25 159 -27 159 C-27.33 119.07 -27.66 79.14 -28 38 C-40.9065843 50.9065843 -49.06565028 60.99730095 -54 78 C-54.36222656 79.20140625 -54.72445312 80.4028125 -55.09765625 81.640625 C-58.97833539 97.67309989 -56.77251245 115.16190302 -50 130 C-49.22269531 131.76537109 -49.22269531 131.76537109 -48.4296875 133.56640625 C-44.28942448 142.03694435 -38.64138018 148.44549834 -32 155 C-31.319375 155.67933594 -30.63875 156.35867187 -29.9375 157.05859375 C-15.14938153 170.89164623 3.34268765 174.82054869 22.9375 175.5625 C24.00291016 175.60568359 25.06832031 175.64886719 26.16601562 175.69335938 C28.77723443 175.79874489 31.38853746 175.90087088 34 176 C34 178.64 34 181.28 34 184 C29.91672939 184.0590068 25.83357118 184.09392935 21.75 184.125 C20.61046875 184.14175781 19.4709375 184.15851563 18.296875 184.17578125 C-5.89131882 184.31321417 -25.92596258 174.98460266 -43.02734375 158.16015625 C-60.88854713 139.70491221 -66.6519278 116.29554092 -66.26953125 91.359375 C-65.61723756 73.22368254 -57.26683675 56.91654737 -46 43 C-45.40960938 42.24589844 -44.81921875 41.49179687 -44.2109375 40.71484375 C-40.07435058 35.7245357 -35.38321291 31.94033204 -30.2175293 28.09448242 C-22.33614366 22.01076929 -15.51171611 14.71711023 -8.55639648 7.62060547 C-8.06439758 7.11956802 -7.57239868 6.61853058 -7.06549072 6.10231018 C-5.70784327 4.71709974 -4.35512473 3.32706353 -3.00268555 1.93676758 C-1 0 -1 0 0 0 Z " fill="#1A75BE" transform="translate(87,16)"/>
<path d="M0 0 C7.66653543 2.89144763 11.60314758 8.8930725 15.16796875 15.9375 C18.94281307 25.29486056 18.23178239 37.87290314 14.8125 47.1875 C11.395536 54.80922804 7.75302615 59.48449157 0.02734375 63.0859375 C-5.82164474 64.85195467 -11.97704356 64.82600545 -18 64 C-19.65 63.01 -21.3 62.02 -23 61 C-23.33 68.59 -23.66 76.18 -24 84 C-30.27 84 -36.54 84 -43 84 C-43 56.61 -43 29.22 -43 1 C-38.38 1 -33.76 1 -29 1 C-26 4 -26 4 -24 7 C-23.37351562 6.57847656 -22.74703125 6.15695313 -22.1015625 5.72265625 C-21.28429687 5.17480469 -20.46703125 4.62695312 -19.625 4.0625 C-18.81289063 3.51722656 -18.00078125 2.97195312 -17.1640625 2.41015625 C-11.82975929 -1.06580667 -6.21385836 -0.64682268 0 0 Z " fill="#373737" transform="translate(705,86)"/>
<path d="M0 0 C6.78040152 4.26914169 10.5062071 11.51862129 13 19 C13.92878295 30.45056691 12.9950469 39.95677488 6.1328125 49.6328125 C3.93946514 52.06718704 1.94864395 53.54697166 -0.875 55.1875 C-1.69742188 55.67605469 -2.51984375 56.16460937 -3.3671875 56.66796875 C-11.61614339 60.84140192 -20.33989567 61.44185122 -29.296875 59.16015625 C-37.139544 56.20422644 -43.46932552 51.97281225 -47.33984375 44.3671875 C-48.33729799 41.93212126 -49.21110109 39.50932251 -50 37 C-50.495 35.515 -50.495 35.515 -51 34 C-52.00600908 23.20695969 -50.45392962 14.29886281 -44.1328125 5.359375 C-41.93901928 2.93254147 -39.94432996 1.45052193 -37.125 -0.1875 C-35.89136719 -0.92033203 -35.89136719 -0.92033203 -34.6328125 -1.66796875 C-23.04367855 -7.53131397 -11.15315365 -6.12229688 0 0 Z " fill="#363636" transform="translate(639,91)"/>
<path d="M0 0 C2.23844758 1.41431605 3.6984241 2.5218482 4.89453125 4.9140625 C3.71484375 7.26171875 3.71484375 7.26171875 2.01953125 9.9765625 C1.46523438 10.87503906 0.9109375 11.77351563 0.33984375 12.69921875 C-1.10546875 14.9140625 -1.10546875 14.9140625 -2.10546875 15.9140625 C-6.06696892 16.39717228 -8.42848608 15.87321599 -11.79296875 13.9140625 C-17.35981254 10.87857735 -23.24390647 11.34814389 -29.37109375 12.24609375 C-29.9434375 12.46652344 -30.51578125 12.68695313 -31.10546875 12.9140625 C-32.31323081 16.53734869 -32.50587767 19.11017777 -32.10546875 22.9140625 C-27.23939586 28.14096707 -19.88993125 29.60497543 -13.296875 31.73828125 C-5.67800675 34.34009884 -0.03950223 37.5658983 4.33203125 44.4765625 C7.4731453 51.58826227 6.88877119 59.99994767 4.39453125 67.2265625 C0.35098098 75.87526725 -6.12842317 80.77183009 -14.95703125 84.07421875 C-20.10629165 85.44778077 -24.83084208 85.43217044 -30.10546875 84.9140625 C-30.93691406 84.841875 -31.76835937 84.7696875 -32.625 84.6953125 C-40.45115164 83.58270936 -49.48109209 79.53843916 -55.10546875 73.9140625 C-54.75478188 70.42211661 -53.00409398 68.00143518 -51.04296875 65.1640625 C-50.49511719 64.36484375 -49.94726562 63.565625 -49.3828125 62.7421875 C-48.96128906 62.13890625 -48.53976562 61.535625 -48.10546875 60.9140625 C-43.54102103 61.20541023 -40.81912615 61.9647608 -36.98046875 64.4765625 C-31.28250063 67.83464337 -25.54662061 67.977501 -19.10546875 66.9140625 C-15.63762348 65.11705431 -15.63762348 65.11705431 -14.10546875 61.9140625 C-13.2720106 58.37110746 -13.2720106 58.37110746 -14.10546875 54.9140625 C-18.78548117 49.45404801 -27.04631578 47.53500407 -33.73046875 45.4765625 C-41.25704061 42.97657043 -46.20852033 39.72772855 -50.1953125 32.78125 C-53.27056335 26.47236629 -53.25399909 18.69442694 -51.234375 12.046875 C-47.7698228 4.57252959 -42.98889975 0.06547731 -35.60546875 -3.4609375 C-24.01473394 -7.64696919 -10.78396266 -5.56204382 0 0 Z " fill="#363636" transform="translate(506.10546875,66.0859375)"/>
<path d="M0 0 C6.27 0 12.54 0 19 0 C19 10.89 19 21.78 19 33 C20.98 31.68 22.96 30.36 25 29 C31.17123297 26.67951606 40.42863992 26.63511465 46.5859375 28.98828125 C51.96113236 32.64382564 54.79834663 38.00937421 57 44 C57.6062186 47.77942942 57.58923351 51.43801546 57.48828125 55.2578125 C57.48120651 56.28687714 57.47413177 57.31594177 57.46684265 58.37619019 C57.43910641 61.62656875 57.37640692 64.87515213 57.3125 68.125 C57.28739031 70.34372492 57.26458185 72.56247715 57.24414062 74.78125 C57.1893478 80.18817976 57.1032205 85.59378674 57 91 C50.73 91 44.46 91 38 91 C37.98598145 88.98664551 37.98598145 88.98664551 37.97167969 86.93261719 C37.93180722 81.95262464 37.86605566 76.97325165 37.79248047 71.99365234 C37.76425501 69.83845987 37.74304835 67.68316357 37.72900391 65.52783203 C37.70759653 62.4294717 37.6609568 59.33236173 37.609375 56.234375 C37.60814636 55.27070007 37.60691772 54.30702515 37.60565186 53.31414795 C37.53506889 48.0121014 37.53506889 48.0121014 35.17285156 43.39160156 C31.92541236 41.31178095 29.7816606 41.47839164 26 42 C22.66144077 43.25653858 22.66144077 43.25653858 20 46 C19.09301775 49.39918514 19.16226692 52.73256826 19.1953125 56.234375 C19.18160614 57.22753723 19.16789978 58.22069946 19.15377808 59.24395752 C19.116416 62.41309653 19.12019726 65.58067164 19.125 68.75 C19.10687765 70.89976415 19.08607642 73.0495075 19.0625 75.19921875 C19.01059041 80.46640864 18.99557359 85.7325683 19 91 C12.73 91 6.46 91 0 91 C0 60.97 0 30.94 0 0 Z " fill="#363636" transform="translate(522,59)"/>
<path d="M0 0 C2.31 1.98 4.62 3.96 7 6 C7.87914062 6.67289063 8.75828125 7.34578125 9.6640625 8.0390625 C23.26326428 19.45511483 30.81498234 38.54735632 32.34375 55.90234375 C32.44109688 59.96251999 32.3236035 63.95541719 32 68 C31.9395752 68.75716309 31.87915039 69.51432617 31.81689453 70.29443359 C29.9114802 90.92298385 20.46109396 106.78356699 5.98046875 121.41796875 C4 123 4 123 1 123 C0.505 62.115 0.505 62.115 0 0 Z " fill="#FAFCFD" transform="translate(153,52)"/>
<path d="M0 0 C7.17199286 3.88922407 12.41958184 10.25874551 15 18 C15.09511161 20.35261357 15.12986976 22.70796967 15.125 25.0625 C15.12886719 26.93615234 15.12886719 26.93615234 15.1328125 28.84765625 C15 32 15 32 14 34 C1.13 34 -11.74 34 -25 34 C-21.90701884 42.70108417 -21.90701884 42.70108417 -15 48 C-9.92361269 48.65467151 -5.96921935 48.22278921 -1.375 45.9375 C1.75093278 44.41810062 3.143458 43.99521807 6.75 43.875 C11.13941737 45.39441371 12.42405842 47.17511705 15 51 C15 51.66 15 52.32 15 53 C6.53362039 60.8946241 -2.74633767 63.36538212 -14.12890625 63.2109375 C-23.79003859 62.50114002 -30.43593404 58.43728635 -37.25 51.8125 C-43.35163593 42.0062994 -44.54897251 31.31941447 -43 20 C-40.3656074 11.1467134 -34.73409825 5.86162936 -27.0625 1.11328125 C-18.78988336 -3.3520516 -8.78994641 -3.34470387 0 0 Z " fill="#373737" transform="translate(343,88)"/>
<path d="M0 0 C0.66 0.33 1.32 0.66 2 1 C2.0695021 12.90891909 2.12281244 24.81778995 2.15543652 36.72687054 C2.17109422 42.25670726 2.19233462 47.78640524 2.22631836 53.31616211 C2.25890775 58.65241167 2.27685223 63.98852776 2.28463173 69.32486916 C2.29017597 71.36104242 2.30100244 73.39720835 2.31719017 75.43332481 C2.33895867 78.28473081 2.34196714 81.13558486 2.34057617 83.98706055 C2.351362 84.82935211 2.36214783 85.67164368 2.3732605 86.53945923 C2.33624299 93.54959982 0.14115409 97.07768458 -4.82095337 102.07319641 C-5.30542938 102.55048691 -5.7899054 103.0277774 -6.2890625 103.51953125 C-6.79295502 104.02296555 -7.29684753 104.52639984 -7.81600952 105.04508972 C-8.87431885 106.10039418 -9.93504126 107.15328368 -10.99804688 108.20385742 C-12.63215975 109.81957917 -14.25799417 111.44329619 -15.8828125 113.06835938 C-16.91358943 114.09422556 -17.9448232 115.11963295 -18.9765625 116.14453125 C-19.70934921 116.87564873 -19.70934921 116.87564873 -20.4569397 117.62153625 C-23.88391169 121 -23.88391169 121 -25 121 C-25.16239122 108.75190428 -25.28667167 96.50406583 -25.3626852 84.25511169 C-25.3991735 78.56698506 -25.44864442 72.87959644 -25.52807617 67.19189453 C-25.6042915 61.69995908 -25.6460234 56.2087322 -25.6641407 50.71630859 C-25.67704685 48.62391 -25.7022505 46.53154898 -25.7401104 44.43945312 C-25.79114488 41.50176067 -25.79791484 38.56697267 -25.79467773 35.62890625 C-25.81984467 34.7693483 -25.8450116 33.90979034 -25.87094116 33.02418518 C-25.79876245 26.94587607 -23.97734615 23.97784219 -19.74227905 19.66153717 C-19.16732697 19.1132299 -18.59237488 18.56492264 -18 18 C-17.19248291 17.15501953 -16.38496582 16.31003906 -15.55297852 15.43945312 C-14.83553467 14.72724609 -14.11809082 14.01503906 -13.37890625 13.28125 C-12.58935547 12.49492188 -11.79980469 11.70859375 -10.98632812 10.8984375 C-9.7865332 9.71121094 -9.7865332 9.71121094 -8.5625 8.5 C-7.73556641 7.67757812 -6.90863281 6.85515625 -6.05664062 6.0078125 C-4.04005041 4.00287887 -2.02114764 2.00033747 0 0 Z " fill="#FBAB0A" transform="translate(119,54)"/>
<path d="M0 0 C2.93804996 -0.08086376 5.87388075 -0.1404283 8.8125 -0.1875 C9.64587891 -0.21263672 10.47925781 -0.23777344 11.33789062 -0.26367188 C12.54155273 -0.27817383 12.54155273 -0.27817383 13.76953125 -0.29296875 C14.87711792 -0.31653442 14.87711792 -0.31653442 16.00708008 -0.34057617 C18.59911228 0.10238413 19.40384211 0.94149456 21 3 C22.06557164 5.70760006 23.00373156 8.35608912 23.875 11.125 C24.13039551 11.91672607 24.38579102 12.70845215 24.64892578 13.52416992 C25.4451985 16.01233726 26.22473198 18.50521478 27 21 C27.25136719 21.80099121 27.50273437 22.60198242 27.76171875 23.42724609 C28.47697338 25.71918307 29.17920007 28.0145891 29.875 30.3125 C30.0901123 31.01068848 30.30522461 31.70887695 30.52685547 32.42822266 C31.59576461 36.04518485 32.24830697 39.22427337 32 43 C32.66 43 33.32 43 34 43 C34.11480713 41.8435498 34.22961426 40.68709961 34.34790039 39.49560547 C34.89420204 35.15226581 36.02839009 31.20463018 37.43359375 27.0703125 C37.67159195 26.35390594 37.90959015 25.63749939 38.15480042 24.89938354 C38.6546588 23.40078023 39.15819648 21.90339946 39.6652832 20.40722656 C40.44144698 18.11333501 41.20290051 15.81491921 41.96289062 13.515625 C42.45226315 12.05439858 42.94246775 10.5934505 43.43359375 9.1328125 C43.77432167 8.10318893 43.77432167 8.10318893 44.12193298 7.05276489 C45.11475489 4.14680409 45.79869037 2.20130963 48 0 C50.9093558 -0.14517744 53.719946 -0.18630796 56.625 -0.125 C57.42679687 -0.11597656 58.22859375 -0.10695313 59.0546875 -0.09765625 C61.03658523 -0.07406223 63.01832981 -0.03819065 65 0 C64.25568577 4.97764078 62.41307219 9.47867209 60.61328125 14.1484375 C60.27378952 15.03802155 59.93429779 15.92760559 59.58451843 16.84414673 C58.86426104 18.72932308 58.14211318 20.61377809 57.41821289 22.49755859 C56.33020947 25.32891394 55.24755959 28.16226555 54.16601562 30.99609375 C51.00066437 39.27688766 47.81200341 47.54857426 44.54296875 55.7890625 C44.07270264 56.9745166 43.60243652 58.1599707 43.11791992 59.38134766 C42 62 42 62 41 63 C38.13732433 63.07325168 35.299281 63.09238205 32.4375 63.0625 C31.63119141 63.05798828 30.82488281 63.05347656 29.99414062 63.04882812 C27.99606244 63.03700518 25.99802217 63.01906914 24 63 C23.77306961 62.41277161 23.54613922 61.82554321 23.31233215 61.22052002 C20.92909328 55.05432627 18.5436505 48.88898833 16.15698242 42.72412109 C15.26905824 40.42973921 14.38167781 38.13514681 13.49487305 35.84033203 C12.21289086 32.5231941 10.92889113 29.20684293 9.64453125 25.890625 C9.25473587 24.88074524 8.86494049 23.87086548 8.46333313 22.8303833 C6.06231883 16.63786681 3.55083512 10.50548651 0.9304657 4.40228271 C0 2 0 2 0 0 Z " fill="#373737" transform="translate(360,87)"/>
<path d="M0 0 C20.92307692 0 20.92307692 0 30.875 5.625 C37.63831237 13.18399618 39.37660145 21.71645666 39.27734375 31.54296875 C38.58439498 40.18042875 35.33336066 47.14462882 29 53 C20 57 20 57 0 57 C0 38.19 0 19.38 0 0 Z " fill="#FAFAFA" transform="translate(234,77)"/>
<path d="M0 0 C4.21809232 1.91007954 5.68446016 3.41099231 7.875 7.5 C10.46227952 15.75465372 9.83962958 24.32074085 6 32 C2.8929167 35.67200753 1.1271661 36.86626843 -3.6875 37.4375 C-8.11367413 37.37300202 -10.47893379 35.80812536 -13.58984375 32.75390625 C-18.17526825 27.05070514 -17.58064373 18.94007504 -17 12 C-16.14014689 7.54177002 -14.69728334 4.64863567 -11.3125 1.5 C-7.28407723 -0.32419145 -4.3412896 -0.83186388 0 0 Z " fill="#F8F8F8" transform="translate(624,100)"/>
<path d="M0 0 C3.95682768 2.86528901 5.05919347 6.68504563 5.8125 11.3125 C6.50166179 19.29999817 5.98913145 26.31050021 1.8125 33.3125 C-1.08939045 35.97910204 -2.72465767 36.25359279 -6.625 36.75 C-11.2056779 36.18746061 -12.88561796 35.60523555 -16.1875 32.3125 C-17.09391707 27.82847328 -16.97757807 23.43376049 -16.875 18.875 C-16.88982422 17.64716797 -16.90464844 16.41933594 -16.91992188 15.15429688 C-16.82743318 5.16007715 -16.82743318 5.16007715 -13.83203125 2.02734375 C-9.36604138 -0.86862309 -5.1365263 -1.61433684 0 0 Z " fill="#FAFAFA" transform="translate(697.1875,100.6875)"/>
<path d="M0 0 C5.5 3 5.5 3 7 6 C7 7.98 7 9.96 7 12 C-0.59 12 -8.18 12 -16 12 C-13.49942478 3.24798673 -9.47894566 -2.09177528 0 0 Z " fill="#F9F9F9" transform="translate(334,99)"/>
</svg>
